<svg
  xmlns="http://www.w3.org/2000/svg"
  viewBox="0 0 500 500"
  style="shape-rendering: geometricprecision"
>
  <g>
    <path
      style="opacity: 1"
      fill="#212f57"
      d="M228.5 22.5c25.101-1.057 39.434 10.777 43 35.5a85.597 85.597 0 0 0-.5 11.5 1091.852 1091.852 0 0 0 38 23c10.81-10.87 23.643-14.037 38.5-9.5 21.562 10.3 28.395 26.8 20.5 49.5-5.752 11.248-14.919 17.582-27.5 19v36c13.956 2.071 23.456 9.737 28.5 23 5.076 27.232-5.924 43.232-33 48-10.399-.073-19.232-3.739-26.5-11l-38 23c-1.127 30.639-16.794 44.139-47 40.5-18.68-7.832-27.346-21.998-26-42.5a1938.376 1938.376 0 0 0-36.5-20c-17.614 13.648-34.948 13.314-52-1-13.677-18.53-12.51-36.03 3.5-52.5 4.933-4.132 10.6-6.632 17-7.5v-36c-17.447-2.95-27.28-13.283-29.5-31-.721-19.387 8.112-32.22 26.5-38.5 12.946-2.848 24.279.152 34 9 1 .667 2 .667 3 0A2004.355 2004.355 0 0 1 200 67.5c-2.425-22.71 7.075-37.71 28.5-45Z"
      transform="translate(-26.698 167.159) scale(.60244)"
    />
  </g>
  <g>
    <path
      style="opacity: 1"
      fill="#5270fe"
      d="M207.5 81.5c18.015 16.9 36.348 17.234 55 1a580.937 580.937 0 0 1 39 24.5c-3.543 14.16-.209 26.494 10 37 3.809 3.238 8.142 5.404 13 6.5v39c-12.819 4.658-20.986 13.658-24.5 27-.654 6.129-.321 12.129 1 18a32381.21 32381.21 0 0 1-35 21c-10.53-10.844-23.363-15.344-38.5-13.5-8.292 2.48-15.292 6.98-21 13.5a1845.133 1845.133 0 0 1-35.5-20c4.105-16.021-.062-29.521-12.5-40.5a32.747 32.747 0 0 0-12-5.5c-.167-12.671 0-25.338.5-38 20.196-8.894 28.03-24.061 23.5-45.5 12.399-8.19 24.732-16.357 37-24.5Z"
      transform="translate(-26.698 167.159) scale(.60244)"
    />
  </g>
  <g>
    <path
      style="opacity: 1"
      fill="#fcfcfe"
      d="M234.5 119.5a474.4 474.4 0 0 1 47 14c3.141 21.519-.359 41.852-10.5 61-8.068 12.622-19.235 21.289-33.5 26-23.799-7.972-38.299-24.305-43.5-49a119.866 119.866 0 0 1-1.5-38 1551.125 1551.125 0 0 0 42-14Z"
      transform="translate(-26.698 167.159) scale(.60244)"
    />
  </g>
  <g>
    <path
      style="opacity: 1"
      fill="#253258"
      d="M230.5 143.5c21.061-.771 31.227 9.229 30.5 30-4.824 14.671-14.99 21.171-30.5 19.5-13.932-5.351-20.099-15.518-18.5-30.5 1.355-4.88 3.855-9.047 7.5-12.5 3.73-2.193 7.397-4.36 11-6.5Z"
      transform="translate(-26.698 167.159) scale(.60244)"
    />
  </g>
  <g>
    <path
      style="opacity: 1"
      fill="#f4f4f6"
      d="M250.5 154.5a46.081 46.081 0 0 1 6 5.5l-25 25c-.667.667-1.333.667-2 0l-13-13 5.5-5.5c2.719 3.422 5.886 5.922 9.5 7.5a522.556 522.556 0 0 0 19-19.5Z"
      transform="translate(-26.698 167.159) scale(.60244)"
    />
  </g>
  <text
    style="
      white-space: pre;
      fill: #333;
      font-family: Arial, sans-serif;
      font-size: 70.7px;
    "
    x="120"
    y="298"
  >
    Resegti
  </text>
</svg>
