<?xml version="1.0" encoding="UTF-8"?>
<!DOCTYPE svg PUBLIC "-//W3C//DTD SVG 1.1//EN" "http://www.w3.org/Graphics/SVG/1.1/DTD/svg11.dtd">
<svg xmlns="http://www.w3.org/2000/svg" version="1.1" width="477px" height="477px" style="shape-rendering:geometricPrecision; text-rendering:geometricPrecision; image-rendering:optimizeQuality; fill-rule:evenodd; clip-rule:evenodd" xmlns:xlink="http://www.w3.org/1999/xlink">
<g><path style="opacity:1" fill="#5271fe" d="M -0.5,-0.5 C 158.5,-0.5 317.5,-0.5 476.5,-0.5C 476.5,158.5 476.5,317.5 476.5,476.5C 317.5,476.5 158.5,476.5 -0.5,476.5C -0.5,317.5 -0.5,158.5 -0.5,-0.5 Z"/></g>
<g><path style="opacity:1" fill="#212f57" d="M 228.5,22.5 C 253.601,21.4434 267.934,33.2768 271.5,58C 271.074,61.8558 270.907,65.6891 271,69.5C 283.5,77.418 296.167,85.0846 309,92.5C 319.81,81.6292 332.643,78.4625 347.5,83C 369.062,93.3002 375.895,109.8 368,132.5C 362.248,143.748 353.081,150.082 340.5,151.5C 340.5,163.5 340.5,175.5 340.5,187.5C 354.456,189.571 363.956,197.237 369,210.5C 374.076,237.732 363.076,253.732 336,258.5C 325.601,258.427 316.768,254.761 309.5,247.5C 296.833,255.167 284.167,262.833 271.5,270.5C 270.373,301.139 254.706,314.639 224.5,311C 205.82,303.168 197.154,289.002 198.5,268.5C 186.398,261.699 174.231,255.032 162,248.5C 144.386,262.148 127.052,261.814 110,247.5C 96.3231,228.97 97.4897,211.47 113.5,195C 118.433,190.868 124.1,188.368 130.5,187.5C 130.5,175.5 130.5,163.5 130.5,151.5C 113.053,148.55 103.22,138.217 101,120.5C 100.279,101.113 109.112,88.28 127.5,82C 140.446,79.1521 151.779,82.1521 161.5,91C 162.5,91.6667 163.5,91.6667 164.5,91C 176.248,83.0425 188.081,75.2092 200,67.5C 197.575,44.7892 207.075,29.7892 228.5,22.5 Z"/></g>
<g><path style="opacity:1" fill="#5270fe" d="M 207.5,81.5 C 225.515,98.4005 243.848,98.7338 262.5,82.5C 275.866,90.1776 288.866,98.3443 301.5,107C 297.957,121.16 301.291,133.494 311.5,144C 315.309,147.238 319.642,149.404 324.5,150.5C 324.5,163.5 324.5,176.5 324.5,189.5C 311.681,194.158 303.514,203.158 300,216.5C 299.346,222.629 299.679,228.629 301,234.5C 289.323,241.516 277.657,248.516 266,255.5C 255.47,244.656 242.637,240.156 227.5,242C 219.208,244.48 212.208,248.98 206.5,255.5C 194.586,248.96 182.752,242.293 171,235.5C 175.105,219.479 170.938,205.979 158.5,195C 154.856,192.344 150.856,190.511 146.5,189.5C 146.333,176.829 146.5,164.162 147,151.5C 167.196,142.606 175.03,127.439 170.5,106C 182.899,97.8098 195.232,89.6431 207.5,81.5 Z"/></g>
<g><path style="opacity:1" fill="#fcfcfe" d="M 234.5,119.5 C 250.377,123.347 266.044,128.014 281.5,133.5C 284.641,155.019 281.141,175.352 271,194.5C 262.932,207.122 251.765,215.789 237.5,220.5C 213.701,212.528 199.201,196.195 194,171.5C 191.478,158.917 190.978,146.251 192.5,133.5C 206.671,128.998 220.671,124.332 234.5,119.5 Z"/></g>
<g><path style="opacity:1" fill="#253258" d="M 230.5,143.5 C 251.561,142.729 261.727,152.729 261,173.5C 256.176,188.171 246.01,194.671 230.5,193C 216.568,187.649 210.401,177.482 212,162.5C 213.355,157.62 215.855,153.453 219.5,150C 223.23,147.807 226.897,145.64 230.5,143.5 Z"/></g>
<g><path style="opacity:1" fill="#f4f4f6" d="M 250.5,154.5 C 252.63,156.127 254.63,157.96 256.5,160C 248.167,168.333 239.833,176.667 231.5,185C 230.833,185.667 230.167,185.667 229.5,185C 225.167,180.667 220.833,176.333 216.5,172C 218.333,170.167 220.167,168.333 222,166.5C 224.719,169.922 227.886,172.422 231.5,174C 238.036,167.631 244.369,161.131 250.5,154.5 Z"/></g>
<g><path style="opacity:1" fill="#fbfcff" d="M 101.5,385.5 C 98.0381,384.518 94.3714,384.185 90.5,384.5C 90.5,392.167 90.5,399.833 90.5,407.5C 86.5,407.5 82.5,407.5 78.5,407.5C 78.5,388.167 78.5,368.833 78.5,349.5C 87.8393,349.334 97.1726,349.5 106.5,350C 119.443,352.019 124.276,359.519 121,372.5C 119.181,377.336 115.681,380.169 110.5,381C 114.641,382.474 117.474,385.307 119,389.5C 120.609,395.491 122.109,401.491 123.5,407.5C 119.116,407.826 114.783,407.492 110.5,406.5C 108.845,400.882 107.345,395.216 106,389.5C 105.252,387.249 103.752,385.916 101.5,385.5 Z"/></g>
<g><path style="opacity:1" fill="#fbfbff" d="M 187.5,349.5 C 197.597,349.08 207.597,349.746 217.5,351.5C 217.167,354.167 216.833,356.833 216.5,359.5C 208.493,359.334 200.493,359.5 192.5,360C 189.833,363.333 189.833,366.667 192.5,370C 198.833,372.333 205.167,374.667 211.5,377C 219.825,384.003 221.659,392.503 217,402.5C 215.363,404.81 213.196,406.31 210.5,407C 199.912,409.143 189.412,408.976 179,406.5C 178.502,403.518 178.335,400.518 178.5,397.5C 186.84,397.666 195.173,397.5 203.5,397C 207.023,394.206 207.356,391.04 204.5,387.5C 197.38,384.96 190.38,382.127 183.5,379C 177.885,373.25 176.052,366.417 178,358.5C 179.775,353.888 182.942,350.888 187.5,349.5 Z"/></g>
<g><path style="opacity:1" fill="#f9faff" d="M 289.5,349.5 C 298.226,349.161 306.893,349.661 315.5,351C 316.451,354.057 316.784,357.223 316.5,360.5C 308.493,360.334 300.493,360.5 292.5,361C 290.383,362.731 288.883,364.898 288,367.5C 287.161,376.22 287.495,384.887 289,393.5C 293.885,398.075 299.385,398.741 305.5,395.5C 306.497,388.532 306.83,381.532 306.5,374.5C 310.833,374.5 315.167,374.5 319.5,374.5C 319.5,385.5 319.5,396.5 319.5,407.5C 316.167,407.5 312.833,407.5 309.5,407.5C 309.785,405.712 309.452,404.045 308.5,402.5C 300.515,408.847 291.848,410.013 282.5,406C 280.291,404.127 278.458,401.96 277,399.5C 272.013,385.319 272.347,371.319 278,357.5C 281.15,353.689 284.983,351.023 289.5,349.5 Z"/></g>
<g><path style="opacity:1" fill="#fcfdff" d="M 170.5,355.5 C 169.566,356.568 169.232,357.901 169.5,359.5C 161.648,359.175 153.982,359.508 146.5,360.5C 145.883,360.611 145.383,360.944 145,361.5C 144.501,365.486 144.334,369.486 144.5,373.5C 151.833,373.5 159.167,373.5 166.5,373.5C 166.5,376.167 166.5,378.833 166.5,381.5C 158.981,381.175 151.648,381.508 144.5,382.5C 144.197,387.43 144.531,392.263 145.5,397C 153.827,397.5 162.16,397.666 170.5,397.5C 170.5,400.833 170.5,404.167 170.5,407.5C 159.064,407.956 147.731,407.456 136.5,406C 134.383,404.269 132.883,402.102 132,399.5C 131.333,385.5 131.333,371.5 132,357.5C 133.122,355.376 134.622,353.543 136.5,352C 147.731,350.544 159.064,350.044 170.5,350.5C 170.5,352.167 170.5,353.833 170.5,355.5 Z"/></g>
<g><path style="opacity:1" fill="#fcfdff" d="M 266.5,355.5 C 265.566,356.568 265.232,357.901 265.5,359.5C 257.648,359.175 249.982,359.508 242.5,360.5C 241.883,360.611 241.383,360.944 241,361.5C 240.501,365.486 240.334,369.486 240.5,373.5C 247.833,373.5 255.167,373.5 262.5,373.5C 262.5,376.167 262.5,378.833 262.5,381.5C 254.981,381.175 247.648,381.508 240.5,382.5C 240.197,387.43 240.531,392.263 241.5,397C 249.827,397.5 258.16,397.666 266.5,397.5C 266.5,400.833 266.5,404.167 266.5,407.5C 255.064,407.956 243.731,407.456 232.5,406C 230.383,404.269 228.883,402.102 228,399.5C 227.333,385.5 227.333,371.5 228,357.5C 229.122,355.376 230.622,353.543 232.5,352C 243.731,350.544 255.064,350.044 266.5,350.5C 266.5,352.167 266.5,353.833 266.5,355.5 Z"/></g>
<g><path style="opacity:1" fill="#fefeff" d="M 324.5,350.5 C 340.167,350.5 355.833,350.5 371.5,350.5C 371.5,353.833 371.5,357.167 371.5,360.5C 365.833,360.5 360.167,360.5 354.5,360.5C 354.5,376.167 354.5,391.833 354.5,407.5C 350.5,407.5 346.5,407.5 342.5,407.5C 342.5,391.833 342.5,376.167 342.5,360.5C 336.5,360.5 330.5,360.5 324.5,360.5C 324.5,357.167 324.5,353.833 324.5,350.5 Z"/></g>
<g><path style="opacity:1" fill="#fefffe" d="M 379.5,350.5 C 383.5,350.5 387.5,350.5 391.5,350.5C 391.5,369.5 391.5,388.5 391.5,407.5C 387.5,407.5 383.5,407.5 379.5,407.5C 379.5,388.5 379.5,369.5 379.5,350.5 Z"/></g>
<g><path style="opacity:1" fill="#5472ff" d="M 91.5,359.5 C 96.1785,359.334 100.845,359.501 105.5,360C 109.128,364.344 109.462,369.01 106.5,374C 101.628,375.388 96.6278,375.888 91.5,375.5C 91.5,370.167 91.5,364.833 91.5,359.5 Z"/></g>
<g><path style="opacity:1" fill="#ccd5ff" d="M 170.5,355.5 C 170.5,357.167 170.5,358.833 170.5,360.5C 162.5,360.5 154.5,360.5 146.5,360.5C 153.982,359.508 161.648,359.175 169.5,359.5C 169.232,357.901 169.566,356.568 170.5,355.5 Z"/></g>
<g><path style="opacity:1" fill="#ccd5ff" d="M 266.5,355.5 C 266.5,357.167 266.5,358.833 266.5,360.5C 258.5,360.5 250.5,360.5 242.5,360.5C 249.982,359.508 257.648,359.175 265.5,359.5C 265.232,357.901 265.566,356.568 266.5,355.5 Z"/></g>
<g><path style="opacity:1" fill="#d0d8ff" d="M 166.5,373.5 C 167.477,376.287 167.81,379.287 167.5,382.5C 159.833,382.5 152.167,382.5 144.5,382.5C 151.648,381.508 158.981,381.175 166.5,381.5C 166.5,378.833 166.5,376.167 166.5,373.5 Z"/></g>
<g><path style="opacity:1" fill="#d0d8ff" d="M 262.5,373.5 C 263.477,376.287 263.81,379.287 263.5,382.5C 255.833,382.5 248.167,382.5 240.5,382.5C 247.648,381.508 254.981,381.175 262.5,381.5C 262.5,378.833 262.5,376.167 262.5,373.5 Z"/></g>
<g><path style="opacity:1" fill="#afbdff" d="M 101.5,385.5 C 98.1667,385.5 94.8333,385.5 91.5,385.5C 91.825,393.019 91.4916,400.352 90.5,407.5C 90.5,399.833 90.5,392.167 90.5,384.5C 94.3714,384.185 98.0381,384.518 101.5,385.5 Z"/></g>
</svg>
